# xmcd
#
# Track frame offsets:
#	150
#	15872
#	29377
#	42907
#	58025
#	71945
#	86135
#	103085
#	124387
#	135207
#	151422
#	163137
#	177547
#	195467
#	215187
#	230552
#	245670
#	272272
#
# Disc length: 3844
#
# Revision: 2
# Processed by: cddbd v1.5.1PL0 Copyright (c) Steve Scherf et al.
# Submitted via: OrangeCD 5.2
# Normalized: r1:DSETVAR1
#
DISCID=040f0212
DTITLE=Various Artist - The Millennium's Greatest Line Dance Party
DYEAR=1998
DGENRE=Country
TTITLE0=Scooter Lee - Honky Tonk Twist
TTITLE1=Vince Gill - What The Cowgirls Do
TTITLE2=George Jones - Billy B. Bad
TTITLE3=Desert Rose Band - One Step Forward
TTITLE4=Country FM - Everybody Is Line Dancing
TTITLE5=The Bellamy Brothers - Get Into Reggae Cowboy
TTITLE6=Kimber Clayton - Jose Cuervo
TTITLE7=The Cheap Seats - Somethin' In The Water
TTITLE8=Roger Miller - King Of The Road
TTITLE9=Charlie Daniels Band - The Devil Went Down To Georgia
TTITLE10=Oakridge Boys - Elvira
TTITLE11=Dave Sheriff - Walking The Line
TTITLE12=Marcia Griffiths - Electric Boogie
TTITLE13=Smokin' Armadillos - I'm A Cowboy
TTITLE14=Grove Grass Boyz - Macarena
TTITLE15=Billy Ray Cyrus - Achy Breaky Heart
TTITLE16=Arrow - Hot, Hot, Hot (Caribbean Cowboy Mix)
TTITLE17=Keith Glass and Wylie - Hooked On Honky Tonk
EXTD=
EXTT0=
EXTT1=
EXTT2=
EXTT3=
EXTT4=
EXTT5=
EXTT6=
EXTT7=
EXTT8=
EXTT9=
EXTT10=
EXTT11=
EXTT12=
EXTT13=
EXTT14=
EXTT15=
EXTT16=
EXTT17=
PLAYORDER=
